<svg xmlns="http://www.w3.org/2000/svg" xmlns:xlink="http://www.w3.org/1999/xlink" version="1.1" x="0px" y="0px" viewBox="0 0 90 112.5" enable-background="new 0 0 90 90" xml:space="preserve"><g><path d="M18.3,14.8v2.1h28.6v-2.1c0-1.7-1.3-3-3-3h-7v-4c-0.2-1.7-1.5-3-3.2-3h-2.4c-1.7,0-3,1.4-3,3v4h-7   C19.6,11.8,18.3,13.1,18.3,14.8z"/><rect x="29" y="27.6" width="16.5" height="2.2"/><path d="M23.2,24.3c-2.4,0-4.3,1.9-4.3,4.3c0,2.4,1.9,4.3,4.3,4.3c2.4,0,4.3-1.9,4.3-4.3C27.5,26.3,25.6,24.3,23.2,24.3z    M23.2,31.1c-1.3,0-2.4-1.1-2.4-2.4s1.1-2.4,2.4-2.4s2.4,1.1,2.4,2.4S24.5,31.1,23.2,31.1z"/><path d="M23.2,34.8c-2.4,0-4.3,1.9-4.3,4.3c0,2.4,1.9,4.3,4.3,4.3c2.4,0,4.3-1.9,4.3-4.3C27.5,36.8,25.6,34.8,23.2,34.8z    M23.2,41.6c-1.3,0-2.4-1.1-2.4-2.4s1.1-2.4,2.4-2.4s2.4,1.1,2.4,2.4C25.6,40.5,24.5,41.6,23.2,41.6z"/><path d="M23.2,45.3c-2.4,0-4.3,1.9-4.3,4.3c0,2.4,1.9,4.3,4.3,4.3c2.4,0,4.3-1.9,4.3-4.3C27.5,47.3,25.6,45.3,23.2,45.3z    M23.2,52.1c-1.3,0-2.4-1.1-2.4-2.4s1.1-2.4,2.4-2.4s2.4,1.1,2.4,2.4C25.6,51,24.5,52.1,23.2,52.1z"/><polygon points="54.7,46.5 50.5,42.3 47.9,44.9 52.1,49.1 52,49.1 54.6,51.8 62.9,43.5 60.3,40.9  "/><path d="M75.3,59.8c-0.5-0.5-1.2-0.5-1.7,0L73,60.4l-3.8-3.8c2.3-3.1,3.6-6.8,3.6-10.7c0-4.8-1.8-9.3-5.2-12.6   c-2.5-2.5-5.7-4.2-9.1-4.8V6.7H38.2c0.1,0.4,0.2,0.8,0.2,1.2v2h16.9V28c-0.1,0-0.2,0-0.3,0c-0.6,0-1.3,0-1.9,0.1V13.4h-4.9   c0.1,0.4,0.2,0.9,0.2,1.4V15h3.1v13.3c-3.4,0.7-6.6,2.3-9.1,4.9c-1.4,1.5-2.6,3.1-3.4,4.9H29v2.2h9.1c-0.6,1.7-0.9,3.6-0.9,5.5   c0,0.9,0.1,1.9,0.2,2.8H29v2.2h8.9c0.8,2.9,2.3,5.5,4.5,7.6c2.5,2.5,5.6,4.1,9,4.8v0.2H13.5V15h3.1v-0.2c0-0.5,0.1-0.9,0.2-1.4   h-4.9V65H53v-1.5c0.7,0.1,1.3,0.1,2,0.1c0.1,0,0.1,0,0.2,0v3.7H9.7V9.9h16.9V7.8c0-0.4,0.1-0.8,0.2-1.2H6.5v63.9h51.9v-7.2   c2.7-0.5,5.3-1.6,7.4-3.3l3.8,3.8L69,64.4c-0.5,0.5-0.5,1.2,0,1.7c0.3,0.3,0.6,0.4,0.9,0.4c0.3,0,0.6-0.1,0.8-0.4l4.6-4.6   C75.8,61,75.8,60.3,75.3,59.8z M55,58.8c-3.5,0-6.7-1.3-9.2-3.8c-2.4-2.5-3.8-5.7-3.8-9.2s1.3-6.7,3.8-9.2c2.5-2.4,5.7-3.8,9.2-3.8   s6.8,1.3,9.2,3.8c2.4,2.5,3.8,5.7,3.8,9.2s-1.3,6.8-3.8,9.2S58.5,58.8,55,58.8z"/><path d="M86.7,71.9l-10-10l-5.5,5.5l10,10c0.8,0.8,2.1,0.8,2.9,0l2.5-2.5C87.4,74,87.4,72.7,86.7,71.9z"/><path d="M57.9,76.5H16.3v7.6h41.6c0.4,0,0.7-0.3,0.7-0.7v-6.2C58.6,76.8,58.3,76.5,57.9,76.5z"/><path d="M6.9,79.7c-0.5,0.2-0.5,1,0,1.2L8.4,81l6.2,2.7V77l-6.2,2.6L6.9,79.7z"/></g></svg>