<svg xmlns="http://www.w3.org/2000/svg" xmlns:xlink="http://www.w3.org/1999/xlink" version="1.1" x="0px" y="0px" viewBox="0 0 100 125" style="enable-background:new 0 0 100 100;" xml:space="default"><g><path d="M17,65h18c1.1,0,2-0.9,2-2c0-1.1-0.9-2-2-2H17c-1.1,0-2,0.9-2,2C15,64.1,15.9,65,17,65z"/><path d="M93,9H7c-1.1,0-2,0.9-2,2v62c0,1.1,0.9,2,2,2h55v14c0,0.8,0.5,1.5,1.2,1.8c0.8,0.3,1.6,0.1,2.2-0.4l6.6-6.6l6.6,6.6   C79,90.8,79.5,91,80,91c0.3,0,0.5,0,0.8-0.2c0.7-0.3,1.2-1,1.2-1.8V75h11c1.1,0,2-0.9,2-2V11C95,9.9,94.1,9,93,9z M78,84.2   l-4.6-4.6c-0.8-0.8-2-0.8-2.8,0L66,84.2V63.5c1.8,0.9,3.8,1.5,6,1.5s4.2-0.5,6-1.5V84.2z M72,61c-5,0-9-4-9-9c0-5,4-9,9-9s9,4,9,9   C81,57,77,61,72,61z M91,71h-9V60.3c1.9-2.2,3-5.1,3-8.3c0-7.2-5.8-13-13-13s-13,5.8-13,13c0,3.1,1.1,6,3,8.3V71H9V13h82V71z"/><path d="M23,23h54c1.1,0,2-0.9,2-2c0-1.1-0.9-2-2-2H23c-1.1,0-2,0.9-2,2C21,22.1,21.9,23,23,23z"/><path d="M69,29H31c-1.1,0-2,0.9-2,2c0,1.1,0.9,2,2,2h38c1.1,0,2-0.9,2-2C71,29.9,70.1,29,69,29z"/></g></svg>