<svg xmlns="http://www.w3.org/2000/svg" xmlns:xlink="http://www.w3.org/1999/xlink" version="1.1" x="0px" y="0px" viewBox="0 0 512 640" enable-background="new 0 0 512 512" xml:space="preserve"><g><path d="M469,129h-81.9V96.2c0-40.7-33.1-73.7-73.7-73.7H198.6c-40.7,0-73.7,33.1-73.7,73.7V129H43c-22.6,0-41,18.4-41,41v278.6   c0,22.6,18.4,41,41,41h41h100.5h143.1h100.5h41c22.6,0,41-18.4,41-41V170C510,147.4,491.6,129,469,129z M141.3,96.2   c0-31.6,25.7-57.4,57.4-57.4h114.7c31.6,0,57.4,25.7,57.4,57.4V129h-16.4V96.2c0-22.6-18.4-41-41-41H198.6c-22.6,0-41,18.4-41,41   V129h-16.4V96.2z M337.9,129H174.1V96.2c0-13.6,11-24.6,24.6-24.6h114.7c13.6,0,24.6,11,24.6,24.6V129z M43,145.4h81.9h32.8h196.6   h32.8H469c13.6,0,24.6,11,24.6,24.6v41h-73.7h-8.2h-32.8h-8.2H141.3h-8.2h-32.8h-8.2H18.4v-41C18.4,156.4,29.4,145.4,43,145.4z    M378.9,227.3h32.8v32.8h-32.8V227.3z M100.3,227.3h32.8v32.8h-32.8V227.3z M201.5,473.1c4-26.5,26.9-46.9,54.5-46.9   c27.6,0,50.6,20.4,54.5,46.9H201.5z M327,473.1c-4.1-35.6-34.4-63.3-71-63.3c-36.7,0-66.9,27.7-71,63.3h-84.7v-17.6l41.2-6.9   l1.6-4.7c1.8-5.3,4-10.7,6.7-16l2.2-4.4l-24.3-34l36.5-36.5l34,24.3l4.4-2.2c5.3-2.7,10.7-4.9,16-6.7l4.7-1.6l6.9-41.2h51.7   l6.9,41.2l4.7,1.6c5.3,1.8,10.7,4,16,6.7l4.4,2.2l34-24.3l36.5,36.5l-24.3,34l2.2,4.4c2.7,5.3,4.9,10.7,6.7,16l1.6,4.7l41.2,6.9   v17.6H327z M469,473.1h-41v-31.5l-45.2-7.5c-1.1-3-2.4-6-3.8-9l26.7-37.3l-56.2-56.2l-37.3,26.7c-3-1.4-6-2.6-9-3.8l-7.5-45.2   h-79.4l-7.5,45.2c-3,1.1-6,2.4-9,3.8l-37.3-26.7l-56.2,56.2l26.7,37.3c-1.4,3-2.6,6-3.8,9l-45.2,7.5v31.5H43   c-13.6,0-24.6-11-24.6-24.6V227.3h65.5v49.2h65.5v-49.2h213v49.2h65.5v-49.2h65.5v221.2C493.6,462.1,482.6,473.1,469,473.1z"/><rect x="215" y="170" width="16.4" height="16.4"/><rect x="247.8" y="170" width="16.4" height="16.4"/><rect x="280.6" y="170" width="16.4" height="16.4"/><rect x="247.8" y="342" width="16.4" height="16.4"/><rect x="151.9" y="380.6" transform="matrix(-0.7071 -0.7071 0.7071 -0.7071 -1.6503 776.9063)" width="16.4" height="16.4"/><rect x="343.7" y="380.6" transform="matrix(0.7071 -0.7071 0.7071 0.7071 -171.8443 362.7219)" width="16.4" height="16.4"/></g></svg>