<svg xmlns="http://www.w3.org/2000/svg" xmlns:xlink="http://www.w3.org/1999/xlink" version="1.1" x="0px" y="0px" viewBox="0 0 100 125" style="enable-background:new 0 0 100 100;" xml:space="preserve"><g><g><g><path d="M9.2,29.7c-3.5,0-6.3-2.8-6.3-6.3c0-3.5,2.8-6.3,6.3-6.3c3.5,0,6.3,2.8,6.3,6.3C15.5,26.9,12.7,29.7,9.2,29.7z M9.2,20.6     c-1.6,0-2.9,1.3-2.9,2.9c0,1.6,1.3,2.9,2.9,2.9c1.6,0,2.9-1.3,2.9-2.9C12.1,21.9,10.8,20.6,9.2,20.6z"/></g><g><path d="M62.2,39.3c-3.5,0-6.3-2.8-6.3-6.3c0-3.5,2.8-6.3,6.3-6.3c3.5,0,6.3,2.8,6.3,6.3C68.5,36.5,65.7,39.3,62.2,39.3z      M62.2,30.2c-1.6,0-2.9,1.3-2.9,2.9c0,1.6,1.3,2.9,2.9,2.9c1.6,0,2.9-1.3,2.9-2.9C65.1,31.4,63.8,30.2,62.2,30.2z"/></g><g><path d="M35.7,22.2c-5.7,0-10.3-4.6-10.3-10.3S30.1,1.7,35.7,1.7C41.4,1.7,46,6.3,46,12S41.4,22.2,35.7,22.2z M35.7,5.1     c-3.8,0-6.9,3.1-6.9,6.9s3.1,6.9,6.9,6.9c3.8,0,6.9-3.1,6.9-6.9S39.5,5.1,35.7,5.1z"/></g><g><path d="M88.7,22.2c-5.7,0-10.3-4.6-10.3-10.3S83.1,1.7,88.7,1.7C94.4,1.7,99,6.3,99,12S94.4,22.2,88.7,22.2z M88.7,5.1     c-3.8,0-6.9,3.1-6.9,6.9s3.1,6.9,6.9,6.9c3.8,0,6.9-3.1,6.9-6.9S92.5,5.1,88.7,5.1z"/></g><g><rect x="12.9" y="16.8" transform="matrix(0.886 -0.4637 0.4637 0.886 -6.2024 11.7102)" width="15.7" height="3.4"/></g><g><rect x="48.9" y="14" transform="matrix(0.6417 -0.767 0.767 0.6417 -0.5273 47.5574)" width="3.4" height="20.7"/></g><g><polygon points="67.3,32.8 65.1,30.2 81.3,17.1 83.4,19.7    "/></g></g><g><path d="M13.1,98.3H5.4c-2.4,0-4.4-2-4.4-4.4V42.5C1,40,3,38,5.4,38h7.7c2.4,0,4.4,2,4.4,4.4v51.4C17.4,96.3,15.5,98.3,13.1,98.3z     M5.4,41.4c-0.5,0-1,0.5-1,1v51.4c0,0.6,0.4,1,1,1h7.7c0.5,0,1-0.5,1-1V42.5c0-0.6-0.4-1-1-1H5.4z"/></g><g><path d="M39.6,98.3h-7.7c-2.4,0-4.4-2.1-4.4-4.7V36.4c0-2.6,2-4.7,4.4-4.7h7.7c2.4,0,4.4,2.1,4.4,4.7v57.1    C43.9,96.2,42,98.3,39.6,98.3z M31.9,35.1c-0.5,0-1,0.6-1,1.3v57.1c0,0.7,0.4,1.3,1,1.3h7.7c0.5,0,1-0.6,1-1.3V36.4    c0-0.7-0.4-1.3-1-1.3L31.9,35.1L31.9,35.1z"/></g><g><path d="M66.1,98.3h-7.7c-2.4,0-4.4-1.7-4.4-3.8V53.9c0-2.1,2-3.8,4.4-3.8h7.7c2.4,0,4.4,1.7,4.4,3.8v40.5    C70.4,96.6,68.5,98.3,66.1,98.3z M58.4,53.5c-0.6,0-1,0.3-1,0.4v40.5c0,0.1,0.3,0.4,1,0.4h7.7c0.6,0,1-0.3,1-0.4V53.9    c0-0.1-0.3-0.4-1-0.4L58.4,53.5L58.4,53.5z"/></g><g><path d="M92.6,98.3h-7.7c-2.4,0-4.4-2.1-4.4-4.7V36.4c0-2.6,2-4.7,4.4-4.7h7.7c2.4,0,4.4,2.1,4.4,4.7v57.1    C96.9,96.2,95,98.3,92.6,98.3z M84.9,35.1c-0.5,0-1,0.6-1,1.3v57.1c0,0.7,0.4,1.3,1,1.3h7.7c0.5,0,1-0.6,1-1.3V36.4    c0-0.7-0.4-1.3-1-1.3L84.9,35.1L84.9,35.1z"/></g></g></svg>