<svg xmlns="http://www.w3.org/2000/svg" xmlns:xlink="http://www.w3.org/1999/xlink" version="1.1" x="0px" y="0px" viewBox="0 0 65 81.25" enable-background="new 0 0 65 65" xml:space="preserve"><g><path d="M48.9,24.1v-1.5h-2.4V1.7h-6v20.9h-1.7V9.8h-6v12.9h-1.7v-18h-6v18h-1.7v-8.2h-6v8.2H15v1.5H48.9z M42,3.2h3v19.4h-3V3.2z    M34.3,11.3h3v11.4h-3V11.3z M26.6,6.2h3v16.5h-3V6.2z M18.9,16h3v6.7h-3V16z"/><path d="M47.8,39.2c-1.1,1.9-2.5,3.5-4.1,4.9c-3.3,2.7-7.6,4.1-11.9,3.9L31,48l-2.7,15l0.8,0.1c1.1,0.1,2.3,0.2,3.4,0.2   c0,0,0,0,0,0c7.5,0,14.9-2.6,20.7-7.4c3.6-3,6.5-6.6,8.6-10.8l0.4-0.7l-14.1-5.7L47.8,39.2z M60.1,45.1c-2,3.7-4.6,6.9-7.8,9.6   c-6.2,5.1-14.2,7.6-22.2,7l2.2-12.1c4.5,0.1,8.9-1.5,12.3-4.3c1.6-1.3,3-2.9,4.1-4.7L60.1,45.1z"/><path d="M18.9,41.6c-3.5-4.3-4.8-10.1-3.4-15.5l0.2-0.6L1.6,19.8l-0.2,0.8c-3.4,10.6-1.2,22.1,5.8,30.7c4.4,5.4,10.3,9.2,17,10.9   l0.8,0.2l2.7-15l-0.6-0.2C23.9,46.1,21,44.2,18.9,41.6z M25.4,51.6l-10.1,5c-1.5-1-2.8-2.1-4.1-3.3l12.3-6.1   c0.8,0.4,1.7,0.8,2.5,1.1L25.4,51.6z M13.5,31.2c0.1,1.7,0.3,3.3,0.8,4.9l-11,5.4c-0.6-1.5-1-3.1-1.4-4.6L13.5,31.2z M14.8,37.6   c0.6,1.5,1.3,2.9,2.3,4.2l-11,5.4c-0.9-1.4-1.6-2.8-2.2-4.2L14.8,37.6z M13.5,29.5L1.6,35.4c-0.3-1.7-0.4-3.4-0.4-5.1l10-4.9   l2.6,1.1C13.7,27.4,13.5,28.5,13.5,29.5z M2.5,21.8l6.9,2.8l-8.1,4C1.5,26.3,1.9,24,2.5,21.8z M8.3,50.3c-0.5-0.6-0.9-1.2-1.4-1.8   l11.1-5.5c1.1,1.3,2.4,2.5,3.9,3.4L10,52.2C9.4,51.6,8.9,51,8.3,50.3z M23.8,60.5c-2.5-0.7-4.8-1.7-6.9-3l8.2-4.1L23.8,60.5z"/><path d="M63.6,20.1l-0.3-0.8l-14,5.9l0.2,0.6c0.8,2.9,0.8,6,0,8.9l-0.2,0.6l14.1,5.7l0.2-0.8C65.8,33.9,65.8,26.7,63.6,20.1z    M62.5,39.2l-11.4-4.6c0.6-2.8,0.6-5.7,0-8.4l11.3-4.8C64.2,27.1,64.2,33.4,62.5,39.2z"/></g></svg>